<svg width="72" height="72" viewBox="0 0 72 72" fill="none" xmlns="http://www.w3.org/2000/svg" xmlns:xlink="http://www.w3.org/1999/xlink">
<path d="M28.29,61.279C30.423,60.705 31.687,58.51 31.112,56.377C30.538,54.244 28.343,52.98 26.21,53.554L28.29,61.279ZM5.376,44.764C3.22,44.28 1.081,45.636 0.597,47.791C0.113,49.947 1.469,52.086 3.624,52.57L5.376,44.764ZM46,66.167C46,68.376 47.791,70.167 50,70.167C52.209,70.167 54,68.376 54,66.167L46,66.167ZM50,54.879L46.015,54.53C46.005,54.646 46,54.763 46,54.879L50,54.879ZM46.945,47.267L46.547,43.287C44.981,43.443 43.653,44.503 43.153,45.995C42.652,47.487 43.073,49.133 44.228,50.202L46.945,47.267ZM67.875,26.85L71.875,26.85L71.875,26.849L67.875,26.85ZM63,15.913L59.307,14.377C58.668,15.912 59.046,17.683 60.256,18.824L63,15.913ZM62.708,4.917L66.317,3.193C65.812,2.136 64.869,1.353 63.736,1.052L62.708,4.917ZM50,9.234L49.055,13.12C50.078,13.369 51.159,13.204 52.062,12.661L50,9.234ZM27.25,9.234L25.188,12.661C26.091,13.204 27.172,13.369 28.195,13.12L27.25,9.234ZM14.542,4.917L13.514,1.052C12.381,1.353 11.438,2.136 10.933,3.193L14.542,4.917ZM14.25,15.913L16.994,18.824C18.204,17.683 18.582,15.912 17.943,14.377L14.25,15.913ZM9.375,26.938L13.375,26.938L13.375,26.914L9.375,26.938ZM30.305,47.354L33.025,50.287C34.172,49.224 34.594,47.588 34.104,46.102C33.614,44.616 32.303,43.552 30.748,43.379L30.305,47.354ZM27.25,54.879L31.25,54.879C31.25,54.775 31.246,54.671 31.238,54.567L27.25,54.879ZM23.25,66.167C23.25,68.376 25.041,70.167 27.25,70.167C29.459,70.167 31.25,68.376 31.25,66.167L23.25,66.167ZM26.21,53.554C22.565,54.536 20.179,54.523 18.576,54.186C17.033,53.862 15.922,53.178 14.89,52.252C14.348,51.765 13.83,51.214 13.259,50.571C12.739,49.988 12.055,49.187 11.413,48.511C10.079,47.105 8.179,45.393 5.376,44.764L3.624,52.57C4.071,52.67 4.609,52.963 5.611,54.018C6.137,54.573 6.595,55.116 7.281,55.889C7.916,56.602 8.668,57.418 9.547,58.206C11.36,59.833 13.701,61.337 16.932,62.015C20.103,62.681 23.81,62.485 28.29,61.279L26.21,53.554ZM54,66.167L54,54.879L46,54.879L46,66.167L54,66.167ZM53.985,55.229C54.162,53.204 53.856,51.176 53.098,49.288L45.674,52.268C45.969,53.005 46.082,53.774 46.015,54.53L53.985,55.229ZM53.098,49.288C52.341,47.403 51.16,45.718 49.662,44.332L44.228,50.202C44.894,50.819 45.377,51.528 45.674,52.268L53.098,49.288ZM47.343,51.247C52.622,50.719 58.779,49.513 63.646,45.841C68.779,41.967 71.875,35.832 71.875,26.85L63.875,26.85C63.875,33.794 61.608,37.356 58.827,39.455C55.781,41.754 51.473,42.794 46.547,43.287L47.343,51.247ZM71.875,26.849C71.874,21.609 69.624,16.66 65.744,13.002L60.256,18.824C62.634,21.065 63.874,23.948 63.875,26.851L71.875,26.849ZM66.693,17.449C68.613,12.832 68.474,7.709 66.317,3.193L59.098,6.641C60.28,9.115 60.35,11.868 59.307,14.377L66.693,17.449ZM62.708,4.917C63.736,1.052 63.733,1.051 63.729,1.05C63.728,1.049 63.725,1.048 63.722,1.048C63.717,1.047 63.712,1.045 63.707,1.044C63.697,1.041 63.687,1.039 63.677,1.036C63.656,1.031 63.634,1.026 63.611,1.02C63.565,1.01 63.516,0.999 63.462,0.988C63.355,0.966 63.231,0.944 63.092,0.924C62.813,0.884 62.473,0.852 62.068,0.842C61.258,0.822 60.206,0.89 58.899,1.151C56.29,1.671 52.683,2.952 47.938,5.806L52.062,12.661C56.19,10.178 58.937,9.301 60.463,8.997C61.223,8.845 61.685,8.835 61.871,8.84C61.965,8.842 61.993,8.848 61.959,8.843C61.942,8.841 61.909,8.836 61.863,8.826C61.839,8.821 61.812,8.815 61.781,8.808C61.766,8.805 61.75,8.801 61.733,8.796C61.724,8.794 61.715,8.792 61.706,8.79C61.702,8.789 61.697,8.787 61.693,8.786C61.69,8.786 61.687,8.785 61.686,8.784C61.682,8.783 61.679,8.782 62.708,4.917ZM50.945,5.347C42.875,3.384 34.375,3.384 26.305,5.347L28.195,13.12C35.023,11.46 42.227,11.46 49.055,13.12L50.945,5.347ZM29.312,5.806C24.567,2.952 20.96,1.671 18.351,1.151C17.044,0.89 15.992,0.822 15.182,0.842C14.777,0.852 14.437,0.884 14.158,0.924C14.019,0.944 13.895,0.966 13.788,0.988C13.734,0.999 13.685,1.01 13.639,1.02C13.616,1.026 13.594,1.031 13.573,1.036C13.563,1.039 13.553,1.041 13.543,1.044C13.538,1.045 13.533,1.047 13.528,1.048C13.525,1.048 13.522,1.049 13.521,1.05C13.517,1.051 13.514,1.052 14.542,4.917C15.571,8.782 15.568,8.783 15.564,8.784C15.563,8.785 15.56,8.786 15.557,8.786C15.553,8.787 15.548,8.789 15.544,8.79C15.535,8.792 15.526,8.794 15.517,8.796C15.5,8.801 15.484,8.805 15.469,8.808C15.438,8.815 15.411,8.821 15.387,8.826C15.341,8.836 15.308,8.841 15.291,8.843C15.257,8.848 15.285,8.842 15.379,8.84C15.565,8.835 16.027,8.845 16.787,8.997C18.313,9.301 21.06,10.178 25.188,12.661L29.312,5.806ZM10.933,3.193C8.776,7.709 8.637,12.832 10.557,17.449L17.943,14.377C16.9,11.868 16.97,9.115 18.152,6.641L10.933,3.193ZM11.506,13.002C7.597,16.687 5.344,21.681 5.375,26.961L13.375,26.914C13.358,23.99 14.599,21.081 16.994,18.824L11.506,13.002ZM5.375,26.938C5.375,35.874 8.48,41.974 13.604,45.841C18.457,49.503 24.6,50.743 29.862,51.33L30.748,43.379C25.805,42.828 21.483,41.764 18.423,39.455C15.633,37.349 13.375,33.81 13.375,26.938L5.375,26.938ZM27.585,44.421C26.105,45.794 24.934,47.458 24.179,49.32L31.591,52.33C31.888,51.599 32.366,50.898 33.025,50.287L27.585,44.421ZM24.179,49.32C23.422,51.184 23.105,53.188 23.262,55.192L31.238,54.567C31.179,53.818 31.295,53.059 31.591,52.33L24.179,49.32ZM23.25,54.879L23.25,66.167L31.25,66.167L31.25,54.879L23.25,54.879Z" fill="#1E1E1E"/>
</svg>
