<svg width="72" height="72" viewBox="0 0 72 72" fill="none" xmlns="http://www.w3.org/2000/svg" xmlns:xlink="http://www.w3.org/1999/xlink">
<path d="M28.29,61.278C30.423,60.704 31.687,58.509 31.112,56.376C30.538,54.243 28.343,52.979 26.21,53.553L28.29,61.278ZM5.376,44.763C3.22,44.279 1.081,45.635 0.597,47.79C0.113,49.946 1.469,52.085 3.624,52.569L5.376,44.763ZM46,66.166C46,68.375 47.791,70.166 50,70.166C52.209,70.166 54,68.375 54,66.166L46,66.166ZM50,54.878L46.015,54.529C46.005,54.645 46,54.762 46,54.878L50,54.878ZM46.945,47.266L46.547,43.286C44.981,43.442 43.653,44.502 43.153,45.994C42.652,47.486 43.073,49.132 44.228,50.201L46.945,47.266ZM67.875,26.849L71.875,26.849L71.875,26.848L67.875,26.849ZM63,15.912L59.307,14.376C58.668,15.911 59.046,17.682 60.256,18.823L63,15.912ZM62.708,4.916L66.317,3.192C65.812,2.135 64.869,1.352 63.736,1.051L62.708,4.916ZM50,9.233L49.055,13.119C50.078,13.368 51.159,13.203 52.062,12.66L50,9.233ZM27.25,9.233L25.188,12.66C26.091,13.203 27.172,13.368 28.195,13.119L27.25,9.233ZM14.542,4.916L13.514,1.051C12.381,1.352 11.438,2.135 10.933,3.192L14.542,4.916ZM14.25,15.912L16.994,18.823C18.204,17.682 18.582,15.911 17.943,14.376L14.25,15.912ZM9.375,26.937L13.375,26.937L13.375,26.913L9.375,26.937ZM30.305,47.353L33.025,50.286C34.172,49.223 34.594,47.587 34.104,46.101C33.614,44.615 32.303,43.551 30.748,43.378L30.305,47.353ZM27.25,54.878L31.25,54.878C31.25,54.774 31.246,54.67 31.238,54.566L27.25,54.878ZM23.25,66.166C23.25,68.375 25.041,70.166 27.25,70.166C29.459,70.166 31.25,68.375 31.25,66.166L23.25,66.166ZM26.21,53.553C22.565,54.535 20.179,54.522 18.576,54.185C17.033,53.861 15.922,53.177 14.89,52.251C14.348,51.764 13.83,51.213 13.259,50.57C12.739,49.987 12.055,49.186 11.413,48.51C10.079,47.104 8.179,45.392 5.376,44.763L3.624,52.569C4.071,52.669 4.609,52.962 5.611,54.017C6.137,54.572 6.595,55.115 7.281,55.888C7.916,56.601 8.668,57.417 9.547,58.205C11.36,59.832 13.701,61.336 16.932,62.014C20.103,62.68 23.81,62.484 28.29,61.278L26.21,53.553ZM54,66.166L54,54.878L46,54.878L46,66.166L54,66.166ZM53.985,55.228C54.162,53.203 53.856,51.175 53.098,49.287L45.674,52.267C45.969,53.004 46.082,53.773 46.015,54.529L53.985,55.228ZM53.098,49.287C52.341,47.402 51.16,45.717 49.662,44.331L44.228,50.201C44.894,50.818 45.377,51.527 45.674,52.267L53.098,49.287ZM47.343,51.246C52.622,50.718 58.779,49.512 63.646,45.84C68.779,41.966 71.875,35.831 71.875,26.849L63.875,26.849C63.875,33.793 61.608,37.355 58.827,39.454C55.781,41.753 51.473,42.793 46.547,43.286L47.343,51.246ZM71.875,26.848C71.874,21.608 69.624,16.659 65.744,13.001L60.256,18.823C62.634,21.064 63.874,23.947 63.875,26.85L71.875,26.848ZM66.693,17.448C68.613,12.831 68.474,7.708 66.317,3.192L59.098,6.64C60.28,9.114 60.35,11.867 59.307,14.376L66.693,17.448ZM62.708,4.916C63.736,1.051 63.733,1.05 63.729,1.049C63.728,1.048 63.725,1.047 63.722,1.047C63.717,1.046 63.712,1.044 63.707,1.043C63.697,1.04 63.687,1.038 63.677,1.035C63.656,1.03 63.634,1.025 63.611,1.019C63.565,1.009 63.516,0.998 63.462,0.987C63.355,0.965 63.231,0.943 63.092,0.923C62.813,0.883 62.473,0.851 62.068,0.841C61.258,0.821 60.206,0.89 58.899,1.15C56.29,1.67 52.683,2.951 47.938,5.805L52.062,12.66C56.19,10.177 58.937,9.3 60.463,8.996C61.223,8.844 61.685,8.834 61.871,8.839C61.965,8.841 61.993,8.847 61.959,8.842C61.942,8.84 61.909,8.835 61.863,8.825C61.839,8.82 61.812,8.814 61.781,8.807C61.766,8.804 61.75,8.8 61.733,8.795C61.724,8.793 61.715,8.791 61.706,8.789C61.702,8.788 61.697,8.786 61.693,8.785C61.69,8.785 61.687,8.784 61.686,8.783C61.682,8.782 61.679,8.781 62.708,4.916ZM50.945,5.346C42.875,3.383 34.375,3.383 26.305,5.346L28.195,13.119C35.023,11.459 42.227,11.459 49.055,13.119L50.945,5.346ZM29.312,5.805C24.567,2.951 20.96,1.67 18.351,1.15C17.044,0.89 15.992,0.821 15.182,0.841C14.777,0.851 14.437,0.883 14.158,0.923C14.019,0.943 13.895,0.965 13.788,0.987C13.734,0.998 13.685,1.009 13.639,1.019C13.616,1.025 13.594,1.03 13.573,1.035C13.563,1.038 13.553,1.04 13.543,1.043C13.538,1.044 13.533,1.046 13.528,1.047C13.525,1.047 13.522,1.048 13.521,1.049C13.517,1.05 13.514,1.051 14.542,4.916C15.571,8.781 15.568,8.782 15.564,8.783C15.563,8.784 15.56,8.785 15.557,8.785C15.553,8.786 15.548,8.788 15.544,8.789C15.535,8.791 15.526,8.793 15.517,8.795C15.5,8.8 15.484,8.804 15.469,8.807C15.438,8.814 15.411,8.82 15.387,8.825C15.341,8.835 15.308,8.84 15.291,8.842C15.257,8.847 15.285,8.841 15.379,8.839C15.565,8.834 16.027,8.844 16.787,8.996C18.313,9.3 21.06,10.177 25.188,12.66L29.312,5.805ZM10.933,3.192C8.776,7.708 8.637,12.831 10.557,17.448L17.943,14.376C16.9,11.867 16.97,9.114 18.152,6.64L10.933,3.192ZM11.506,13.001C7.597,16.686 5.344,21.68 5.375,26.96L13.375,26.913C13.358,23.989 14.599,21.08 16.994,18.823L11.506,13.001ZM5.375,26.937C5.375,35.873 8.48,41.973 13.604,45.84C18.457,49.502 24.6,50.742 29.862,51.329L30.748,43.378C25.805,42.827 21.483,41.763 18.423,39.454C15.633,37.348 13.375,33.809 13.375,26.937L5.375,26.937ZM27.585,44.42C26.105,45.793 24.934,47.457 24.179,49.319L31.591,52.329C31.888,51.598 32.366,50.897 33.025,50.286L27.585,44.42ZM24.179,49.319C23.422,51.183 23.105,53.187 23.262,55.191L31.238,54.566C31.179,53.817 31.295,53.058 31.591,52.329L24.179,49.319ZM23.25,54.878L23.25,66.166L31.25,66.166L31.25,54.878L23.25,54.878Z" fill="#1E1E1E"/>
</svg>
